# xmcd
#
# Track frame offsets:
# 150
# 18115
# 43730
# 62142
# 97440
# 118272
# 138477
# 156880
# 172997
# 189805
# 213595
# 231875
#
# Disc length: 3277 seconds
#
#
# Revision: 16
# Processed by: cddbd v1.5.2PL0 Copyright (c) Steve Scherf et al.
# Submitted via: FreeRIP 2.941 
#
DISCID=a90ccb0c
DTITLE=Ben Harper - Burn To Shine
DYEAR=1999
DGENRE=Rock
TTITLE0=Alone
TTITLE1=The Woman In You
TTITLE2=Less
TTITLE3=Two Hands Of A Prayer
TTITLE4=Please Bleed
TTITLE5=Suzie Blue
TTITLE6=Steal My Kisses
TTITLE7=Burn To Shine
TTITLE8=Show Me A Little Shame
TTITLE9=Forgiven
TTITLE10=Beloved One
TTITLE11=In The Lord's Arms
EXTD=YEAR: 1999
EXTT0=
EXTT1=
EXTT2=
EXTT3=
EXTT4=
EXTT5=
EXTT6=
EXTT7=
EXTT8=
EXTT9=
EXTT10=
EXTT11=
PLAYORDER=
